<?xml version="1.0" standalone="no"?>
<!DOCTYPE svg PUBLIC "-//W3C//DTD SVG 20010904//EN"
 "http://www.w3.org/TR/2001/REC-SVG-20010904/DTD/svg10.dtd">
<svg version="1.0" xmlns="http://www.w3.org/2000/svg"
 width="700.000000pt" height="700.000000pt" viewBox="0 0 700.000000 700.000000"
 preserveAspectRatio="xMidYMid meet">
<metadata>
Created by potrace 1.11, written by Peter Selinger 2001-2013
</metadata>
<g transform="translate(0.000000,700.000000) scale(0.100000,-0.100000)"
fill="#000000" stroke="none">
<path d="M1728 6775 c-1 -1 -28 -6 -58 -9 -349 -42 -721 -206 -995 -441 -304
-260 -518 -602 -614 -985 -16 -63 -32 -139 -36 -169 -4 -30 -9 -63 -12 -75
-12 -48 -9 -376 4 -476 76 -583 411 -1090 928 -1402 95 -58 351 -170 419 -184
10 -2 33 -8 50 -13 17 -6 42 -12 56 -15 14 -2 60 -12 103 -21 43 -9 103 -18
133 -20 31 -2 58 -5 60 -8 3 -2 -8 -33 -24 -68 -58 -126 -121 -355 -138 -494
-4 -33 -8 -73 -10 -90 -5 -38 -5 -310 0 -350 24 -202 49 -309 108 -475 51
-141 128 -292 211 -415 90 -135 275 -337 377 -414 19 -14 41 -31 48 -38 7 -7
49 -37 95 -67 324 -215 678 -323 1057 -324 191 0 398 27 528 69 18 6 39 12 45
13 7 2 25 8 40 14 16 7 32 12 37 12 30 0 284 122 357 172 23 15 44 28 48 28 3
0 11 5 18 10 7 6 50 39 97 74 111 83 249 218 348 341 214 267 352 611 397 993
8 68 9 314 1 367 -3 22 -8 60 -11 85 -21 153 -79 360 -136 486 -16 36 -29 67
-29 69 0 2 28 6 63 10 34 3 116 17 182 31 632 127 1170 586 1399 1193 51 133
89 277 101 381 3 25 8 56 11 70 12 52 11 378 -1 465 -35 248 -98 449 -207 654
-113 215 -288 433 -454 566 -27 22 -58 48 -69 58 -118 107 -509 302 -664 332
-9 2 -34 8 -56 14 -22 6 -57 13 -79 17 -21 3 -48 8 -60 10 -71 14 -140 19
-296 19 -188 0 -273 -7 -384 -31 -39 -8 -82 -17 -96 -20 -60 -11 -253 -80
-345 -123 -87 -42 -260 -142 -305 -177 -202 -161 -277 -233 -397 -386 l-76
-98 -25 38 c-56 83 -166 208 -256 291 -22 20 -48 44 -58 54 -40 38 -187 141
-274 193 -207 122 -434 204 -664 240 -25 4 -54 9 -65 11 -25 5 -422 13 -427 8z"/>
</g>
</svg>
